<<<<<<< HEAD
<svg xmlns="http://www.w3.org/2000/svg" width="300" height="300" viewBox="0 0 300 300">
  <rect width="100%" height="100%" fill="#f3f4f6"/>
  <!-- Stylized PS5 Console -->
  <path d="M100,60 L105,250 C105,260 115,270 150,270 C185,270 195,260 195,250 L200,60 C200,60 170,40 150,80 C130,40 100,60 100,60 Z" fill="#ffffff" stroke="#ddd" stroke-width="2"/>
  <!-- Inner black core -->
  <path d="M112,70 L115,248 C115,255 125,260 150,260 C175,260 185,255 185,248 L188,70 C188,70 165,58 150,84 C135,58 112,70 112,70 Z" fill="#111111"/>
  <!-- Blue glowing lights -->
  <path d="M115,70 C135,58 150,84 150,84" fill="none" stroke="#007bff" stroke-width="2" opacity="0.8"/>
  <path d="M185,70 C165,58 150,84 150,84" fill="none" stroke="#007bff" stroke-width="2" opacity="0.8"/>
=======
<svg xmlns="http://www.w3.org/2000/svg" width="300" height="300" viewBox="0 0 300 300">
  <rect width="100%" height="100%" fill="#f3f4f6"/>
  <!-- Stylized PS5 Console -->
  <path d="M100,60 L105,250 C105,260 115,270 150,270 C185,270 195,260 195,250 L200,60 C200,60 170,40 150,80 C130,40 100,60 100,60 Z" fill="#ffffff" stroke="#ddd" stroke-width="2"/>
  <!-- Inner black core -->
  <path d="M112,70 L115,248 C115,255 125,260 150,260 C175,260 185,255 185,248 L188,70 C188,70 165,58 150,84 C135,58 112,70 112,70 Z" fill="#111111"/>
  <!-- Blue glowing lights -->
  <path d="M115,70 C135,58 150,84 150,84" fill="none" stroke="#007bff" stroke-width="2" opacity="0.8"/>
  <path d="M185,70 C165,58 150,84 150,84" fill="none" stroke="#007bff" stroke-width="2" opacity="0.8"/>
>>>>>>> 02725e5a37a609bd0b908f5659df73bb19141f88
</svg>